<?xml version="1.0" encoding="UTF-8" standalone="no"?>
<!-- Created with Inkscape (http://www.inkscape.org/) -->

<svg
   xmlns:dc="http://purl.org/dc/elements/1.1/"
   xmlns:cc="http://creativecommons.org/ns#"
   xmlns:rdf="http://www.w3.org/1999/02/22-rdf-syntax-ns#"
   xmlns:svg="http://www.w3.org/2000/svg"
   xmlns="http://www.w3.org/2000/svg"
   xmlns:xlink="http://www.w3.org/1999/xlink"
   xmlns:sodipodi="http://sodipodi.sourceforge.net/DTD/sodipodi-0.dtd"
   xmlns:inkscape="http://www.inkscape.org/namespaces/inkscape"
   version="1.1"
   id="svg3912"
   width="181.12"
   height="181.12"
   viewBox="0 0 181.12 181.12"
   sodipodi:docname="inkscape_logo_gradient.svg"
   inkscape:version="0.92.5 (2060ec1f9f, 2020-04-08)">
  <metadata
     id="metadata3918">
    <rdf:RDF>
      <cc:Work
         rdf:about="">
        <dc:format>image/svg+xml</dc:format>
        <dc:type
           rdf:resource="http://purl.org/dc/dcmitype/StillImage" />
        <dc:title />
      </cc:Work>
    </rdf:RDF>
  </metadata>
  <defs
     id="defs3916">
    <linearGradient
       inkscape:collect="always"
       id="linearGradient4950">
      <stop
         style="stop-color:#005082;stop-opacity:1"
         offset="0"
         id="stop4946" />
      <stop
         style="stop-color:#007759;stop-opacity:1"
         offset="1"
         id="stop4948" />
    </linearGradient>
    <linearGradient
       inkscape:collect="always"
       xlink:href="#linearGradient4950"
       id="linearGradient4952"
       x1="23.335003"
       y1="149.64487"
       x2="156.01891"
       y2="40.838642"
       gradientUnits="userSpaceOnUse" />
  </defs>
  <sodipodi:namedview
     pagecolor="#ffffff"
     bordercolor="#666666"
     borderopacity="1"
     objecttolerance="10"
     gridtolerance="10"
     guidetolerance="10"
     inkscape:pageopacity="0"
     inkscape:pageshadow="2"
     inkscape:window-width="2032"
     inkscape:window-height="1288"
     id="namedview3914"
     showgrid="false"
     inkscape:zoom="1.3030036"
     inkscape:cx="103.89544"
     inkscape:cy="68.311453"
     inkscape:window-x="213"
     inkscape:window-y="109"
     inkscape:window-maximized="0"
     inkscape:current-layer="layer1"
     inkscape:pagecheckerboard="true" />
  <path
     style="fill:#000000;fill-opacity:0;stroke-width:0.27133724"
     d="m 203.77628,110.33107 c -6.70433,-1.43369 -12.15031,-4.71228 -16.17819,-9.7396 -2.03633,-2.541601 -4.41958,-7.169193 -5.31802,-10.326063 l -0.61778,-2.170698 V 20.531737 c 0,-62.955281 0.0317,-67.677449 0.4648,-69.241536 2.81305,-10.159074 9.81983,-17.378851 19.61908,-20.215491 l 2.16578,-0.626937 h 67.69864 67.69864 l 2.16577,0.626937 c 9.79926,2.83664 16.80603,10.056417 19.61909,20.215491 0.4331,1.564087 0.46479,6.286255 0.46479,69.241536 v 67.562972 l -0.62024,2.170698 c -0.92967,3.253564 -3.2712,7.800248 -5.33953,10.368033 -3.12268,3.87675 -7.60368,6.96905 -12.89817,8.90091 -1.78721,0.65212 -2.61326,0.7693 -6.78343,0.9623 -2.61162,0.12086 -33.01495,0.21791 -67.56297,0.21567 -52.58744,-0.003 -63.10172,-0.0655 -64.57826,-0.38125 z"
     id="path7799"
     inkscape:connector-curvature="0" />
  <path
     style="fill:#000000;fill-opacity:0;stroke-width:0.27133724"
     d="m 203.77628,110.33107 c -6.70433,-1.43369 -12.15031,-4.71228 -16.17819,-9.7396 -2.03633,-2.541601 -4.41958,-7.169193 -5.31802,-10.326063 l -0.61778,-2.170698 V 20.531737 c 0,-62.955281 0.0317,-67.677449 0.4648,-69.241536 2.81305,-10.159074 9.81983,-17.378851 19.61908,-20.215491 l 2.16578,-0.626937 h 67.69864 67.69864 l 2.16577,0.626937 c 9.79926,2.83664 16.80603,10.056417 19.61909,20.215491 0.4331,1.564087 0.46479,6.286255 0.46479,69.241536 v 67.562972 l -0.62024,2.170698 c -0.92967,3.253564 -3.2712,7.800248 -5.33953,10.368033 -3.12268,3.87675 -7.60368,6.96905 -12.89817,8.90091 -1.78721,0.65212 -2.61326,0.7693 -6.78343,0.9623 -2.61162,0.12086 -33.01495,0.21791 -67.56297,0.21567 -52.58744,-0.003 -63.10172,-0.0655 -64.57826,-0.38125 z"
     id="path7801"
     inkscape:connector-curvature="0" />
  <path
     style="fill:#000000;fill-opacity:0;stroke-width:0.27133724"
     d="m 203.77628,110.33107 c -6.70433,-1.43369 -12.15031,-4.71228 -16.17819,-9.7396 -2.03633,-2.541601 -4.41958,-7.169193 -5.31802,-10.326063 l -0.61778,-2.170698 V 20.531737 c 0,-62.955281 0.0317,-67.677449 0.4648,-69.241536 2.81305,-10.159074 9.81983,-17.378851 19.61908,-20.215491 l 2.16578,-0.626937 h 67.69864 67.69864 l 2.16577,0.626937 c 9.79926,2.83664 16.80603,10.056417 19.61909,20.215491 0.4331,1.564087 0.46479,6.286255 0.46479,69.241536 v 67.562972 l -0.62024,2.170698 c -0.92967,3.253564 -3.2712,7.800248 -5.33953,10.368033 -3.12268,3.87675 -7.60368,6.96905 -12.89817,8.90091 -1.78721,0.65212 -2.61326,0.7693 -6.78343,0.9623 -2.61162,0.12086 -33.01495,0.21791 -67.56297,0.21567 -52.58744,-0.003 -63.10172,-0.0655 -64.57826,-0.38125 z"
     id="path7803"
     inkscape:connector-curvature="0" />
  <path
     style="fill:#00ffff;fill-opacity:0;stroke-width:0.27133724"
     d="m 203.77628,110.33107 c -6.70433,-1.43369 -12.15031,-4.71228 -16.17819,-9.7396 -2.03633,-2.541601 -4.41958,-7.169193 -5.31802,-10.326063 l -0.61778,-2.170698 V 20.531737 c 0,-62.955281 0.0317,-67.677449 0.4648,-69.241536 2.81305,-10.159074 9.81983,-17.378851 19.61908,-20.215491 l 2.16578,-0.626937 h 67.69864 67.69864 l 2.16577,0.626937 c 9.79926,2.83664 16.80603,10.056417 19.61909,20.215491 0.4331,1.564087 0.46479,6.286255 0.46479,69.241536 v 67.562972 l -0.62024,2.170698 c -0.92967,3.253564 -3.2712,7.800248 -5.33953,10.368033 -3.12268,3.87675 -7.60368,6.96905 -12.89817,8.90091 -1.78721,0.65212 -2.61326,0.7693 -6.78343,0.9623 -2.61162,0.12086 -33.01495,0.21791 -67.56297,0.21567 -52.58744,-0.003 -63.10172,-0.0655 -64.57826,-0.38125 z"
     id="path7805"
     inkscape:connector-curvature="0" />
  <path
     style="fill:#00ffff;fill-opacity:0;stroke-width:0.27133724"
     d="m 203.77628,110.33107 c -6.70433,-1.43369 -12.15031,-4.71228 -16.17819,-9.7396 -2.03633,-2.541601 -4.41958,-7.169193 -5.31802,-10.326063 l -0.61778,-2.170698 V 20.531737 c 0,-62.955281 0.0317,-67.677449 0.4648,-69.241536 2.81305,-10.159074 9.81983,-17.378851 19.61908,-20.215491 l 2.16578,-0.626937 h 67.69864 67.69864 l 2.16577,0.626937 c 9.79926,2.83664 16.80603,10.056417 19.61909,20.215491 0.4331,1.564087 0.46479,6.286255 0.46479,69.241536 v 67.562972 l -0.62024,2.170698 c -0.92967,3.253564 -3.2712,7.800248 -5.33953,10.368033 -3.12268,3.87675 -7.60368,6.96905 -12.89817,8.90091 -1.78721,0.65212 -2.61326,0.7693 -6.78343,0.9623 -2.61162,0.12086 -33.01495,0.21791 -67.56297,0.21567 -52.58744,-0.003 -63.10172,-0.0655 -64.57826,-0.38125 z"
     id="path7807"
     inkscape:connector-curvature="0" />
  <path
     style="fill:#00ffff;fill-opacity:0;stroke-width:0.27133724"
     d="m 203.77628,110.33107 c -6.70433,-1.43369 -12.15031,-4.71228 -16.17819,-9.7396 -2.03633,-2.541601 -4.41958,-7.169193 -5.31802,-10.326063 l -0.61778,-2.170698 V 20.531737 c 0,-62.955281 0.0317,-67.677449 0.4648,-69.241536 2.81305,-10.159074 9.81983,-17.378851 19.61908,-20.215491 l 2.16578,-0.626937 h 67.69864 67.69864 l 2.16577,0.626937 c 9.79926,2.83664 16.80603,10.056417 19.61909,20.215491 0.4331,1.564087 0.46479,6.286255 0.46479,69.241536 v 67.562972 l -0.62024,2.170698 c -0.92967,3.253564 -3.2712,7.800248 -5.33953,10.368033 -3.12268,3.87675 -7.60368,6.96905 -12.89817,8.90091 -1.78721,0.65212 -2.61326,0.7693 -6.78343,0.9623 -2.61162,0.12086 -33.01495,0.21791 -67.56297,0.21567 -52.58744,-0.003 -63.10172,-0.0655 -64.57826,-0.38125 z"
     id="path7809"
     inkscape:connector-curvature="0" />
  <path
     style="fill:#00ffff;fill-opacity:0;stroke-width:0.27133724"
     d="m 203.77628,110.33107 c -6.70433,-1.43369 -12.15031,-4.71228 -16.17819,-9.7396 -2.03633,-2.541601 -4.41958,-7.169193 -5.31802,-10.326063 l -0.61778,-2.170698 V 20.531737 c 0,-62.955281 0.0317,-67.677449 0.4648,-69.241536 2.81305,-10.159074 9.81983,-17.378851 19.61908,-20.215491 l 2.16578,-0.626937 h 67.69864 67.69864 l 2.16577,0.626937 c 9.79926,2.83664 16.80603,10.056417 19.61909,20.215491 0.4331,1.564087 0.46479,6.286255 0.46479,69.241536 v 67.562972 l -0.62024,2.170698 c -0.92967,3.253564 -3.2712,7.800248 -5.33953,10.368033 -3.12268,3.87675 -7.60368,6.96905 -12.89817,8.90091 -1.78721,0.65212 -2.61326,0.7693 -6.78343,0.9623 -2.61162,0.12086 -33.01495,0.21791 -67.56297,0.21567 -52.58744,-0.003 -63.10172,-0.0655 -64.57826,-0.38125 z"
     id="path7811"
     inkscape:connector-curvature="0" />
  <path
     style="fill:#00ffff;fill-opacity:0;stroke-width:0.27133724"
     d="m 203.77628,110.33107 c -6.70433,-1.43369 -12.15031,-4.71228 -16.17819,-9.7396 -2.03633,-2.541601 -4.41958,-7.169193 -5.31802,-10.326063 l -0.61778,-2.170698 V 20.531737 c 0,-62.955281 0.0317,-67.677449 0.4648,-69.241536 2.81305,-10.159074 9.81983,-17.378851 19.61908,-20.215491 l 2.16578,-0.626937 h 67.69864 67.69864 l 2.16577,0.626937 c 9.79926,2.83664 16.80603,10.056417 19.61909,20.215491 0.4331,1.564087 0.46479,6.286255 0.46479,69.241536 v 67.562972 l -0.62024,2.170698 c -0.92967,3.253564 -3.2712,7.800248 -5.33953,10.368033 -3.12268,3.87675 -7.60368,6.96905 -12.89817,8.90091 -1.78721,0.65212 -2.61326,0.7693 -6.78343,0.9623 -2.61162,0.12086 -33.01495,0.21791 -67.56297,0.21567 -52.58744,-0.003 -63.10172,-0.0655 -64.57826,-0.38125 z"
     id="path7813"
     inkscape:connector-curvature="0" />
  <path
     style="fill:#00ffff;fill-opacity:0;stroke-width:0.27133724"
     d="m 203.77628,110.33107 c -6.70433,-1.43369 -12.15031,-4.71228 -16.17819,-9.7396 -2.03633,-2.541601 -4.41958,-7.169193 -5.31802,-10.326063 l -0.61778,-2.170698 V 20.531737 c 0,-62.955281 0.0317,-67.677449 0.4648,-69.241536 2.81305,-10.159074 9.81983,-17.378851 19.61908,-20.215491 l 2.16578,-0.626937 h 67.69864 67.69864 l 2.16577,0.626937 c 9.79926,2.83664 16.80603,10.056417 19.61909,20.215491 0.4331,1.564087 0.46479,6.286255 0.46479,69.241536 v 67.562972 l -0.62024,2.170698 c -0.92967,3.253564 -3.2712,7.800248 -5.33953,10.368033 -3.12268,3.87675 -7.60368,6.96905 -12.89817,8.90091 -1.78721,0.65212 -2.61326,0.7693 -6.78343,0.9623 -2.61162,0.12086 -33.01495,0.21791 -67.56297,0.21567 -52.58744,-0.003 -63.10172,-0.0655 -64.57826,-0.38125 z"
     id="path7815"
     inkscape:connector-curvature="0" />
  <path
     style="fill:#00ffff;fill-opacity:0;stroke-width:0.27133724"
     d="m 203.77628,110.33107 c -6.70433,-1.43369 -12.15031,-4.71228 -16.17819,-9.7396 -2.03633,-2.541601 -4.41958,-7.169193 -5.31802,-10.326063 l -0.61778,-2.170698 V 20.531737 c 0,-62.955281 0.0317,-67.677449 0.4648,-69.241536 2.81305,-10.159074 9.81983,-17.378851 19.61908,-20.215491 l 2.16578,-0.626937 h 67.69864 67.69864 l 2.16577,0.626937 c 9.79926,2.83664 16.80603,10.056417 19.61909,20.215491 0.4331,1.564087 0.46479,6.286255 0.46479,69.241536 v 67.562972 l -0.62024,2.170698 c -0.92967,3.253564 -3.2712,7.800248 -5.33953,10.368033 -3.12268,3.87675 -7.60368,6.96905 -12.89817,8.90091 -1.78721,0.65212 -2.61326,0.7693 -6.78343,0.9623 -2.61162,0.12086 -33.01495,0.21791 -67.56297,0.21567 -52.58744,-0.003 -63.10172,-0.0655 -64.57826,-0.38125 z"
     id="path7817"
     inkscape:connector-curvature="0" />
  <path
     style="fill:#00ffff;fill-opacity:0;stroke-width:0.27133724"
     d="m 203.77628,110.33107 c -6.70433,-1.43369 -12.15031,-4.71228 -16.17819,-9.7396 -2.03633,-2.541601 -4.41958,-7.169193 -5.31802,-10.326063 l -0.61778,-2.170698 V 20.531737 c 0,-62.955281 0.0317,-67.677449 0.4648,-69.241536 2.81305,-10.159074 9.81983,-17.378851 19.61908,-20.215491 l 2.16578,-0.626937 h 67.69864 67.69864 l 2.16577,0.626937 c 9.79926,2.83664 16.80603,10.056417 19.61909,20.215491 0.4331,1.564087 0.46479,6.286255 0.46479,69.241536 v 67.562972 l -0.62024,2.170698 c -0.92967,3.253564 -3.2712,7.800248 -5.33953,10.368033 -3.12268,3.87675 -7.60368,6.96905 -12.89817,8.90091 -1.78721,0.65212 -2.61326,0.7693 -6.78343,0.9623 -2.61162,0.12086 -33.01495,0.21791 -67.56297,0.21567 -52.58744,-0.003 -63.10172,-0.0655 -64.57826,-0.38125 z"
     id="path7819"
     inkscape:connector-curvature="0" />
  <path
     style="fill:#00ffff;fill-opacity:0;stroke-width:0.27133724;opacity:0.02"
     d="m 203.77628,110.33107 c -6.70433,-1.43369 -12.15031,-4.71228 -16.17819,-9.7396 -2.03633,-2.541601 -4.41958,-7.169193 -5.31802,-10.326063 l -0.61778,-2.170698 V 20.531737 c 0,-62.955281 0.0317,-67.677449 0.4648,-69.241536 2.81305,-10.159074 9.81983,-17.378851 19.61908,-20.215491 l 2.16578,-0.626937 h 67.69864 67.69864 l 2.16577,0.626937 c 9.79926,2.83664 16.80603,10.056417 19.61909,20.215491 0.4331,1.564087 0.46479,6.286255 0.46479,69.241536 v 67.562972 l -0.62024,2.170698 c -0.92967,3.253564 -3.2712,7.800248 -5.33953,10.368033 -3.12268,3.87675 -7.60368,6.96905 -12.89817,8.90091 -1.78721,0.65212 -2.61326,0.7693 -6.78343,0.9623 -2.61162,0.12086 -33.01495,0.21791 -67.56297,0.21567 -52.58744,-0.003 -63.10172,-0.0655 -64.57826,-0.38125 z"
     id="path7821"
     inkscape:connector-curvature="0" />
  <path
     style="opacity:0;fill:#00ffff;fill-opacity:1;stroke-width:0.27133724"
     d="m 203.77628,110.33107 c -6.70433,-1.43369 -12.15031,-4.71228 -16.17819,-9.7396 -2.03633,-2.541601 -4.41958,-7.169193 -5.31802,-10.326063 l -0.61778,-2.170698 V 20.531737 c 0,-62.955281 0.0317,-67.677449 0.4648,-69.241536 2.81305,-10.159074 9.81983,-17.378851 19.61908,-20.215491 l 2.16578,-0.626937 h 67.69864 67.69864 l 2.16577,0.626937 c 9.79926,2.83664 16.80603,10.056417 19.61909,20.215491 0.4331,1.564087 0.46479,6.286255 0.46479,69.241536 v 67.562972 l -0.62024,2.170698 c -0.92967,3.253564 -3.2712,7.800248 -5.33953,10.368033 -3.12268,3.87675 -7.60368,6.96905 -12.89817,8.90091 -1.78721,0.65212 -2.61326,0.7693 -6.78343,0.9623 -2.61162,0.12086 -33.01495,0.21791 -67.56297,0.21567 -52.58744,-0.003 -63.10172,-0.0655 -64.57826,-0.38125 z"
     id="path7823"
     inkscape:connector-curvature="0" />
  <path
     style="opacity:0;fill:#00ffff;fill-opacity:1;stroke-width:0.27133724"
     d="m 203.28787,110.21199 c -9.23254,-2.09953 -16.46931,-8.24289 -19.95015,-16.935874 -1.84084,-4.597277 -1.70015,0.524818 -1.81542,-66.096617 -0.0605,-34.9781324 0.004,-63.568237 0.15311,-67.969978 0.25058,-7.390927 0.27939,-7.660136 1.05985,-9.90381 0.94883,-2.727714 2.19167,-5.256895 3.61273,-7.351895 4.0922,-6.032948 11.52352,-10.629874 18.42448,-11.39717 1.41416,-0.157236 28.11447,-0.228439 68.65608,-0.183087 l 66.34195,0.07421 2.30637,0.778528 c 9.35213,3.156869 15.46522,9.269955 18.62208,18.622085 l 0.77853,2.306366 v 68.105647 68.105647 l -0.62047,2.142216 c -2.64169,9.12054 -9.07441,15.832302 -18.25755,19.049512 -1.70154,0.59612 -2.73241,0.7413 -6.62768,0.93344 -2.537,0.12513 -32.94034,0.22457 -67.56297,0.22096 -59.87556,-0.006 -63.05626,-0.0307 -65.12094,-0.50018 z"
     id="path8368"
     inkscape:connector-curvature="0" />
  <path
     style="opacity:0;fill:#00ffff;fill-opacity:1;stroke-width:0.27133724"
     d="m 203.77628,110.33107 c -6.70433,-1.43369 -12.15031,-4.71228 -16.17819,-9.7396 -2.03633,-2.541601 -4.41958,-7.169193 -5.31802,-10.326063 l -0.61778,-2.170698 V 20.531737 c 0,-62.955281 0.0317,-67.677449 0.4648,-69.241536 2.81305,-10.159074 9.81983,-17.378851 19.61908,-20.215491 l 2.16578,-0.626937 h 67.69864 67.69864 l 2.16577,0.626937 c 9.79926,2.83664 16.80603,10.056417 19.61909,20.215491 0.4331,1.564087 0.46479,6.286255 0.46479,69.241536 v 67.562972 l -0.62024,2.170698 c -0.92967,3.253564 -3.2712,7.800248 -5.33953,10.368033 -3.12268,3.87675 -7.60368,6.96905 -12.89817,8.90091 -1.78721,0.65212 -2.61326,0.7693 -6.78343,0.9623 -2.61162,0.12086 -33.01495,0.21791 -67.56297,0.21567 -52.58744,-0.003 -63.10172,-0.0655 -64.57826,-0.38125 z"
     id="path8370"
     inkscape:connector-curvature="0" />
  <path
     style="opacity:0;fill:#00ffff;fill-opacity:1;stroke-width:0.27133724"
     d="m 203.77628,110.33107 c -6.70433,-1.43369 -12.15031,-4.71228 -16.17819,-9.7396 -2.03633,-2.541601 -4.41958,-7.169193 -5.31802,-10.326063 l -0.61778,-2.170698 V 20.531737 c 0,-62.955281 0.0317,-67.677449 0.4648,-69.241536 2.81305,-10.159074 9.81983,-17.378851 19.61908,-20.215491 l 2.16578,-0.626937 h 67.69864 67.69864 l 2.16577,0.626937 c 9.79926,2.83664 16.80603,10.056417 19.61909,20.215491 0.4331,1.564087 0.46479,6.286255 0.46479,69.241536 v 67.562972 l -0.62024,2.170698 c -0.92967,3.253564 -3.2712,7.800248 -5.33953,10.368033 -3.12268,3.87675 -7.60368,6.96905 -12.89817,8.90091 -1.78721,0.65212 -2.61326,0.7693 -6.78343,0.9623 -2.61162,0.12086 -33.01495,0.21791 -67.56297,0.21567 -52.58744,-0.003 -63.10172,-0.0655 -64.57826,-0.38125 z"
     id="path8372"
     inkscape:connector-curvature="0" />
  <path
     style="opacity:0;fill:#00ffff;fill-opacity:1;stroke-width:0.27133724"
     d="m 203.77628,110.33107 c -6.70433,-1.43369 -12.15031,-4.71228 -16.17819,-9.7396 -2.03633,-2.541601 -4.41958,-7.169193 -5.31802,-10.326063 l -0.61778,-2.170698 V 20.531737 c 0,-62.955281 0.0317,-67.677449 0.4648,-69.241536 2.81305,-10.159074 9.81983,-17.378851 19.61908,-20.215491 l 2.16578,-0.626937 h 67.69864 67.69864 l 2.16577,0.626937 c 9.79926,2.83664 16.80603,10.056417 19.61909,20.215491 0.4331,1.564087 0.46479,6.286255 0.46479,69.241536 v 67.562972 l -0.62024,2.170698 c -0.92967,3.253564 -3.2712,7.800248 -5.33953,10.368033 -3.12268,3.87675 -7.60368,6.96905 -12.89817,8.90091 -1.78721,0.65212 -2.61326,0.7693 -6.78343,0.9623 -2.61162,0.12086 -33.01495,0.21791 -67.56297,0.21567 -52.58744,-0.003 -63.10172,-0.0655 -64.57826,-0.38125 z"
     id="path8374"
     inkscape:connector-curvature="0" />
  <path
     style="opacity:0;fill:#00ffff;fill-opacity:1;stroke-width:0.27133724"
     d="m 203.77628,110.33107 c -6.70433,-1.43369 -12.15031,-4.71228 -16.17819,-9.7396 -2.03633,-2.541601 -4.41958,-7.169193 -5.31802,-10.326063 l -0.61778,-2.170698 V 20.531737 c 0,-62.955281 0.0317,-67.677449 0.4648,-69.241536 2.81305,-10.159074 9.81983,-17.378851 19.61908,-20.215491 l 2.16578,-0.626937 h 67.69864 67.69864 l 2.16577,0.626937 c 9.79926,2.83664 16.80603,10.056417 19.61909,20.215491 0.4331,1.564087 0.46479,6.286255 0.46479,69.241536 v 67.562972 l -0.62024,2.170698 c -0.92967,3.253564 -3.2712,7.800248 -5.33953,10.368033 -3.12268,3.87675 -7.60368,6.96905 -12.89817,8.90091 -1.78721,0.65212 -2.61326,0.7693 -6.78343,0.9623 -2.61162,0.12086 -33.01495,0.21791 -67.56297,0.21567 -52.58744,-0.003 -63.10172,-0.0655 -64.57826,-0.38125 z"
     id="path8376"
     inkscape:connector-curvature="0" />
  <path
     style="opacity:0;fill:#00ffff;fill-opacity:1;stroke-width:0.27133724"
     d="m 203.77628,110.33107 c -6.70433,-1.43369 -12.15031,-4.71228 -16.17819,-9.7396 -2.03633,-2.541601 -4.41958,-7.169193 -5.31802,-10.326063 l -0.61778,-2.170698 V 20.531737 c 0,-62.955281 0.0317,-67.677449 0.4648,-69.241536 2.81305,-10.159074 9.81983,-17.378851 19.61908,-20.215491 l 2.16578,-0.626937 h 67.69864 67.69864 l 2.16577,0.626937 c 9.79926,2.83664 16.80603,10.056417 19.61909,20.215491 0.4331,1.564087 0.46479,6.286255 0.46479,69.241536 v 67.562972 l -0.62024,2.170698 c -0.92967,3.253564 -3.2712,7.800248 -5.33953,10.368033 -3.12268,3.87675 -7.60368,6.96905 -12.89817,8.90091 -1.78721,0.65212 -2.61326,0.7693 -6.78343,0.9623 -2.61162,0.12086 -33.01495,0.21791 -67.56297,0.21567 -52.58744,-0.003 -63.10172,-0.0655 -64.57826,-0.38125 z"
     id="path8378"
     inkscape:connector-curvature="0" />
  <path
     style="opacity:0;fill:#00ffff;fill-opacity:1;stroke-width:0.27133724"
     d="m 203.77628,110.33107 c -6.70433,-1.43369 -12.15031,-4.71228 -16.17819,-9.7396 -2.03633,-2.541601 -4.41958,-7.169193 -5.31802,-10.326063 l -0.61778,-2.170698 V 20.531737 c 0,-62.955281 0.0317,-67.677449 0.4648,-69.241536 2.81305,-10.159074 9.81983,-17.378851 19.61908,-20.215491 l 2.16578,-0.626937 h 67.69864 67.69864 l 2.16577,0.626937 c 9.79926,2.83664 16.80603,10.056417 19.61909,20.215491 0.4331,1.564087 0.46479,6.286255 0.46479,69.241536 v 67.562972 l -0.62024,2.170698 c -0.92967,3.253564 -3.2712,7.800248 -5.33953,10.368033 -3.12268,3.87675 -7.60368,6.96905 -12.89817,8.90091 -1.78721,0.65212 -2.61326,0.7693 -6.78343,0.9623 -2.61162,0.12086 -33.01495,0.21791 -67.56297,0.21567 -52.58744,-0.003 -63.10172,-0.0655 -64.57826,-0.38125 z"
     id="path8465"
     inkscape:connector-curvature="0" />
  <path
     style="opacity:0;fill:#00ffff;fill-opacity:1;stroke-width:0.27133724"
     d="m 203.77628,110.33107 c -6.70433,-1.43369 -12.15031,-4.71228 -16.17819,-9.7396 -2.03633,-2.541601 -4.41958,-7.169193 -5.31802,-10.326063 l -0.61778,-2.170698 V 20.531737 c 0,-62.955281 0.0317,-67.677449 0.4648,-69.241536 2.81305,-10.159074 9.81983,-17.378851 19.61908,-20.215491 l 2.16578,-0.626937 h 67.69864 67.69864 l 2.16577,0.626937 c 9.79926,2.83664 16.80603,10.056417 19.61909,20.215491 0.4331,1.564087 0.46479,6.286255 0.46479,69.241536 v 67.562972 l -0.62024,2.170698 c -0.92967,3.253564 -3.2712,7.800248 -5.33953,10.368033 -3.12268,3.87675 -7.60368,6.96905 -12.89817,8.90091 -1.78721,0.65212 -2.61326,0.7693 -6.78343,0.9623 -2.61162,0.12086 -33.01495,0.21791 -67.56297,0.21567 -52.58744,-0.003 -63.10172,-0.0655 -64.57826,-0.38125 z"
     id="path8467"
     inkscape:connector-curvature="0" />
  <path
     style="opacity:0;fill:#00ffff;fill-opacity:1;stroke-width:0.27133724"
     d="m 203.77628,110.33107 c -6.70433,-1.43369 -12.15031,-4.71228 -16.17819,-9.7396 -2.03633,-2.541601 -4.41958,-7.169193 -5.31802,-10.326063 l -0.61778,-2.170698 V 20.531737 c 0,-62.955281 0.0317,-67.677449 0.4648,-69.241536 2.81305,-10.159074 9.81983,-17.378851 19.61908,-20.215491 l 2.16578,-0.626937 h 67.69864 67.69864 l 2.16577,0.626937 c 9.79926,2.83664 16.80603,10.056417 19.61909,20.215491 0.4331,1.564087 0.46479,6.286255 0.46479,69.241536 v 67.562972 l -0.62024,2.170698 c -0.92967,3.253564 -3.2712,7.800248 -5.33953,10.368033 -3.12268,3.87675 -7.60368,6.96905 -12.89817,8.90091 -1.78721,0.65212 -2.61326,0.7693 -6.78343,0.9623 -2.61162,0.12086 -33.01495,0.21791 -67.56297,0.21567 -52.58744,-0.003 -63.10172,-0.0655 -64.57826,-0.38125 z"
     id="path8469"
     inkscape:connector-curvature="0" />
  <path
     style="opacity:0;fill:#00ffff;fill-opacity:1;stroke-width:0.27133724"
     d="m 203.77628,110.33107 c -6.70433,-1.43369 -12.15031,-4.71228 -16.17819,-9.7396 -2.03633,-2.541601 -4.41958,-7.169193 -5.31802,-10.326063 l -0.61778,-2.170698 V 20.531737 c 0,-62.955281 0.0317,-67.677449 0.4648,-69.241536 2.81305,-10.159074 9.81983,-17.378851 19.61908,-20.215491 l 2.16578,-0.626937 h 67.69864 67.69864 l 2.16577,0.626937 c 9.79926,2.83664 16.80603,10.056417 19.61909,20.215491 0.4331,1.564087 0.46479,6.286255 0.46479,69.241536 v 67.562972 l -0.62024,2.170698 c -0.92967,3.253564 -3.2712,7.800248 -5.33953,10.368033 -3.12268,3.87675 -7.60368,6.96905 -12.89817,8.90091 -1.78721,0.65212 -2.61326,0.7693 -6.78343,0.9623 -2.61162,0.12086 -33.01495,0.21791 -67.56297,0.21567 -52.58744,-0.003 -63.10172,-0.0655 -64.57826,-0.38125 z"
     id="path8471"
     inkscape:connector-curvature="0" />
  <path
     style="opacity:0;fill:#00ffff;fill-opacity:1;stroke-width:0.27133724"
     d="m 203.77628,110.33107 c -6.70433,-1.43369 -12.15031,-4.71228 -16.17819,-9.7396 -2.03633,-2.541601 -4.41958,-7.169193 -5.31802,-10.326063 l -0.61778,-2.170698 V 20.531737 c 0,-62.955281 0.0317,-67.677449 0.4648,-69.241536 2.81305,-10.159074 9.81983,-17.378851 19.61908,-20.215491 l 2.16578,-0.626937 h 67.69864 67.69864 l 2.16577,0.626937 c 9.79926,2.83664 16.80603,10.056417 19.61909,20.215491 0.4331,1.564087 0.46479,6.286255 0.46479,69.241536 v 67.562972 l -0.62024,2.170698 c -0.92967,3.253564 -3.2712,7.800248 -5.33953,10.368033 -3.12268,3.87675 -7.60368,6.96905 -12.89817,8.90091 -1.78721,0.65212 -2.61326,0.7693 -6.78343,0.9623 -2.61162,0.12086 -33.01495,0.21791 -67.56297,0.21567 -52.58744,-0.003 -63.10172,-0.0655 -64.57826,-0.38125 z"
     id="path8473"
     inkscape:connector-curvature="0" />
  <path
     style="opacity:0;fill:#00ffff;fill-opacity:1;stroke-width:0.27133724"
     d="m 203.77628,110.33107 c -6.70433,-1.43369 -12.15031,-4.71228 -16.17819,-9.7396 -2.03633,-2.541601 -4.41958,-7.169193 -5.31802,-10.326063 l -0.61778,-2.170698 V 20.531737 c 0,-62.955281 0.0317,-67.677449 0.4648,-69.241536 2.81305,-10.159074 9.81983,-17.378851 19.61908,-20.215491 l 2.16578,-0.626937 h 67.69864 67.69864 l 2.16577,0.626937 c 9.79926,2.83664 16.80603,10.056417 19.61909,20.215491 0.4331,1.564087 0.46479,6.286255 0.46479,69.241536 v 67.562972 l -0.62024,2.170698 c -0.92967,3.253564 -3.2712,7.800248 -5.33953,10.368033 -3.12268,3.87675 -7.60368,6.96905 -12.89817,8.90091 -1.78721,0.65212 -2.61326,0.7693 -6.78343,0.9623 -2.61162,0.12086 -33.01495,0.21791 -67.56297,0.21567 -52.58744,-0.003 -63.10172,-0.0655 -64.57826,-0.38125 z"
     id="path8475"
     inkscape:connector-curvature="0" />
  <path
     style="opacity:0;fill:#00ffff;fill-opacity:1;stroke-width:0.27133724"
     d="m 203.77628,110.33107 c -6.70433,-1.43369 -12.15031,-4.71228 -16.17819,-9.7396 -2.03633,-2.541601 -4.41958,-7.169193 -5.31802,-10.326063 l -0.61778,-2.170698 V 20.531737 c 0,-62.955281 0.0317,-67.677449 0.4648,-69.241536 2.81305,-10.159074 9.81983,-17.378851 19.61908,-20.215491 l 2.16578,-0.626937 h 67.69864 67.69864 l 2.16577,0.626937 c 9.79926,2.83664 16.80603,10.056417 19.61909,20.215491 0.4331,1.564087 0.46479,6.286255 0.46479,69.241536 v 67.562972 l -0.62024,2.170698 c -0.92967,3.253564 -3.2712,7.800248 -5.33953,10.368033 -3.12268,3.87675 -7.60368,6.96905 -12.89817,8.90091 -1.78721,0.65212 -2.61326,0.7693 -6.78343,0.9623 -2.61162,0.12086 -33.01495,0.21791 -67.56297,0.21567 -52.58744,-0.003 -63.10172,-0.0655 -64.57826,-0.38125 z"
     id="path8477"
     inkscape:connector-curvature="0" />
  <path
     style="opacity:0;fill:#00ffff;fill-opacity:1;stroke-width:0.27133724"
     d="m 203.77628,110.33107 c -6.70433,-1.43369 -12.15031,-4.71228 -16.17819,-9.7396 -2.03633,-2.541601 -4.41958,-7.169193 -5.31802,-10.326063 l -0.61778,-2.170698 V 20.531737 c 0,-62.955281 0.0317,-67.677449 0.4648,-69.241536 2.81305,-10.159074 9.81983,-17.378851 19.61908,-20.215491 l 2.16578,-0.626937 h 67.69864 67.69864 l 2.16577,0.626937 c 9.79926,2.83664 16.80603,10.056417 19.61909,20.215491 0.4331,1.564087 0.46479,6.286255 0.46479,69.241536 v 67.562972 l -0.62024,2.170698 c -0.92967,3.253564 -3.2712,7.800248 -5.33953,10.368033 -3.12268,3.87675 -7.60368,6.96905 -12.89817,8.90091 -1.78721,0.65212 -2.61326,0.7693 -6.78343,0.9623 -2.61162,0.12086 -33.01495,0.21791 -67.56297,0.21567 -52.58744,-0.003 -63.10172,-0.0655 -64.57826,-0.38125 z"
     id="path8479"
     inkscape:connector-curvature="0" />
  <g
     inkscape:groupmode="layer"
     id="layer1"
     inkscape:label="Layer 1">
    <path
       style="fill:url(#linearGradient4952);fill-opacity:1;stroke:none;stroke-width:0.27133724"
       d="M 23.608353,181.15009 C 11.553498,179.31529 -1.1411016,168.04216 0.3884679,155.01393 0.0391001,109.65707 -0.02619046,64.285019 0.61024798,18.937153 1.7766498,6.943388 14.4083,-0.99363878 25.863379,0.47285863 70.642729,0.95247487 115.43683,0.69792862 160.20771,0.57838294 172.20182,2.4959203 182.47002,14.435613 180.63633,26.830361 c -0.14592,43.756362 -0.17572,87.513019 -0.33073,131.269359 -2.35179,14.34956 -18.53741,24.82882 -32.71021,22.9242 -42.14288,-0.19255 -81.843837,0.0581 -123.987037,0.12617 z"
       id="path8806"
       inkscape:connector-curvature="0"
       sodipodi:nodetypes="ccccccccc" />
  </g>
  <g
     inkscape:groupmode="layer"
     id="layer2"
     inkscape:label="Layer 2">
    <path
       style="fill:#ffffff;stroke-width:0.25599998;fill-opacity:1"
       d="m 90.627948,92.61459 h -23.04 V 77.766591 H 120.30795 V 92.61459 h -13.04 V 158.6626 H 90.627948 Z m 34.976952,45.04432 c 0.0185,-4.51919 0.0371,-9.03838 0.0556,-13.55757 5.25951,-1.1722 11.45206,-3.31867 13.10842,-9.06165 1.66043,-5.16898 1.39649,-11.15501 -1.02597,-16.03246 -2.60845,-4.14784 -7.60492,-5.953757 -12.26703,-6.47464 V 77.71632 c 11.25159,0.719958 23.68917,5.490296 28.63054,16.39329 3.89088,8.58361 3.97413,18.99446 0.0571,27.57593 -2.66335,5.14774 -7.26915,9.14376 -12.51676,11.51429 5.42313,8.46858 11.00235,16.83591 16.5745,25.20677 h -19.32038 c -4.43201,-6.9159 -8.86403,-13.83179 -13.29604,-20.74769 z"
       id="path6844"
       inkscape:connector-curvature="0"
       sodipodi:nodetypes="cccccccccccccccccccccc" />
  </g>
</svg>
