<?xml version="1.0" encoding="UTF-8" standalone="no"?>
<svg
   xmlns:dc="http://purl.org/dc/elements/1.1/"
   xmlns:cc="http://creativecommons.org/ns#"
   xmlns:rdf="http://www.w3.org/1999/02/22-rdf-syntax-ns#"
   xmlns:svg="http://www.w3.org/2000/svg"
   xmlns="http://www.w3.org/2000/svg"
   xmlns:xlink="http://www.w3.org/1999/xlink"
   xmlns:sodipodi="http://sodipodi.sourceforge.net/DTD/sodipodi-0.dtd"
   xmlns:inkscape="http://www.inkscape.org/namespaces/inkscape"
   version="1.1"
   viewBox="0 0 386.66667 141"
   stroke-miterlimit="10"
   id="svg24"
   sodipodi:docname="logo_gradient1_dark_text.svg"
   inkscape:version="0.92.5 (2060ec1f9f, 2020-04-08)"
   width="386.66666"
   height="141"
   style="fill:none;stroke:none;stroke-linecap:square;stroke-miterlimit:10">
  <metadata
     id="metadata30">
    <rdf:RDF>
      <cc:Work
         rdf:about="">
        <dc:format>image/svg+xml</dc:format>
        <dc:type
           rdf:resource="http://purl.org/dc/dcmitype/StillImage" />
        <dc:title></dc:title>
      </cc:Work>
    </rdf:RDF>
  </metadata>
  <defs
     id="defs28">
    <linearGradient
       id="linearGradient4950"
       inkscape:collect="always">
      <stop
         id="stop4946"
         offset="0"
         style="stop-color:#005082;stop-opacity:1" />
      <stop
         id="stop4948"
         offset="1"
         style="stop-color:#007759;stop-opacity:1" />
    </linearGradient>
    <linearGradient
       gradientUnits="userSpaceOnUse"
       y2="40.838642"
       x2="156.01891"
       y1="149.64487"
       x1="23.335003"
       id="linearGradient4952"
       xlink:href="#linearGradient4950"
       inkscape:collect="always" />
  </defs>
  <sodipodi:namedview
     pagecolor="#ffffff"
     bordercolor="#666666"
     borderopacity="1"
     objecttolerance="10"
     gridtolerance="10"
     guidetolerance="10"
     inkscape:pageopacity="0"
     inkscape:pageshadow="2"
     inkscape:window-width="2137"
     inkscape:window-height="1532"
     id="namedview26"
     showgrid="false"
     inkscape:zoom="3.19"
     inkscape:cx="235.26906"
     inkscape:cy="66.912517"
     inkscape:window-x="276"
     inkscape:window-y="306"
     inkscape:window-maximized="0"
     inkscape:current-layer="g20"
     fit-margin-top="0"
     fit-margin-left="0"
     fit-margin-right="0"
     fit-margin-bottom="0" />
  <clipPath
     id="p.0">
    <path
       d="M 0,0 H 431.66666 V 143 H 0 Z"
       id="path2"
       inkscape:connector-curvature="0"
       style="clip-rule:nonzero" />
  </clipPath>
  <g
     clip-path="url(#p.0)"
     id="g22"
     transform="translate(0,-2)">
    <path
       d="M 0,0 H 431.66666 V 143 H 0 Z"
       id="path5"
       inkscape:connector-curvature="0"
       style="fill:#000000;fill-opacity:0;fill-rule:evenodd" />
    <path
       d="M 146.055,14.656168 H 386.9054 V 134.18373 H 146.055 Z"
       id="path7"
       inkscape:connector-curvature="0"
       style="fill:#000000;fill-opacity:0;fill-rule:evenodd" />
    <path
       d="m 163.94562,65.896164 v -23.28125 h -7.82813 v -6.0625 h 23.70313 v 6.0625 h -7.95313 v 23.28125 z m 17.37094,0 v -19.84375 q 0.67188,-0.609375 2.25,-1.328125 1.57813,-0.734375 3.625,-1.28125 2.04688,-0.5625 4.03125,-0.5625 2.42188,0 3.78125,0.359375 1.35938,0.34375 2.07813,0.875 v 5.234375 q -0.71875,-0.171875 -1.85938,-0.296875 -1.14062,-0.140625 -2.42187,-0.1875 -1.26563,-0.04687 -2.39063,0 -1.125,0.04687 -1.82812,0.140625 v 16.890625 z m 28.12846,0.65625 q -2.15625,0 -3.98437,-0.375 -1.82813,-0.375 -3.20313,-1.25 -1.35937,-0.875 -2.10937,-2.40625 -0.73438,-1.546875 -0.73438,-3.75 0,-1.984375 0.8125,-3.46875 0.8125,-1.5 2.5625,-2.375 1.76563,-0.890625 4.5,-0.890625 1.45313,0 2.85938,0.328125 1.40625,0.328125 2.54687,0.890625 1.14063,0.546875 1.76563,1.203125 l 0.21875,3.25 q -0.89063,-0.484375 -1.98438,-0.765625 -1.09375,-0.28125 -2.28125,-0.28125 -2.03125,0 -2.9375,0.546875 -0.89062,0.546875 -0.89062,1.828125 0,0.65625 0.40625,1.234375 0.42187,0.5625 1.09375,0.921875 0.6875,0.34375 1.48437,0.34375 2.10938,0 2.875,-0.265625 0.78125,-0.265625 0.78125,-1.09375 v -7.75 q 0,-1.9375 -1.26562,-2.78125 -1.25,-0.859375 -3.53125,-0.859375 -1.98438,0 -3.96875,0.75 -1.96875,0.734375 -3.125,1.65625 v -6.375 q 1.0625,-0.703125 3.5,-1.3125 2.45312,-0.625 5.60937,-0.625 0.9375,0 2.23438,0.15625 1.29687,0.15625 2.625,0.59375 1.34375,0.4375 2.51562,1.328125 1.17188,0.875 1.875,2.28125 0.70313,1.40625 0.70313,3.5625 l -0.0469,10.46875 q 0,1.8125 -1.26562,3 -1.25,1.1875 -3.67188,1.734375 -2.40625,0.546875 -5.96875,0.546875 z m 16.48745,-21.078125 q 0.79687,-0.4375 2.20312,-0.875 1.40625,-0.4375 3.125,-0.8125 1.71875,-0.375 3.46875,-0.609375 1.76563,-0.25 3.21875,-0.25 2.95313,0 5.10938,0.703125 2.15625,0.703125 3.3125,2.421875 1.17187,1.71875 1.17187,4.703125 v 15.140625 h -7.26562 v -13.46875 q 0,-0.875 -0.25,-1.546875 -0.23438,-0.6875 -0.70313,-1.125 -0.45312,-0.453125 -1.21875,-0.671875 -0.76562,-0.21875 -1.82812,-0.21875 -0.92188,0 -1.82813,0.25 -0.89062,0.234375 -1.25,0.5 v 16.28125 h -7.26562 z m 33.83545,21.078125 q -2.375,0 -4.09375,-0.53125 -1.70313,-0.515625 -3.10938,-1.046875 v -6.25 q 0.78125,0.578125 1.95313,1.21875 1.17187,0.625 2.59375,1.078125 1.4375,0.4375 3.0625,0.4375 1.40625,0 1.89062,-0.46875 0.48438,-0.46875 0.48438,-1.078125 0,-0.609375 -0.67188,-1.03125 -0.65625,-0.421875 -1.71875,-0.71875 -1.04687,-0.3125 -2.23437,-0.53125 -1.01563,-0.1875 -2,-0.640625 -0.98438,-0.46875 -1.8125,-1.28125 -0.8125,-0.8125 -1.28125,-2.015625 -0.45313,-1.21875 -0.45313,-2.84375 0,-2.25 0.85938,-3.71875 0.85937,-1.46875 2.28125,-2.375 1.4375,-0.90625 3.0625,-1.296875 1.64062,-0.40625 3.17187,-0.359375 2.90625,0.09375 4.53125,0.625 1.625,0.53125 2.90625,1.359375 l 0.0469,5.5 q -1.45313,-0.796875 -2.96875,-1.53125 -1.51563,-0.75 -3.45313,-0.75 -1.625,0 -2.25,0.484375 -0.60937,0.484375 -0.60937,1.21875 0,0.75 0.45312,1.171875 0.46875,0.421875 1.23438,0.671875 0.76562,0.234375 1.65625,0.5 1.09375,0.265625 2.28125,0.625 1.1875,0.34375 2.20312,1.046875 1.01563,0.703125 1.64063,1.9375 0.64062,1.21875 0.64062,3.25 -0.0312,2.765625 -1.46875,4.375 -1.42187,1.609375 -3.76562,2.296875 -2.32813,0.671875 -5.0625,0.671875 z m 14.83419,-0.65625 V 43.943039 h 7.29688 l 0.0469,21.953125 z m -0.0937,-25.171875 v -5.40625 h 7.48438 v 5.40625 z m 22.61774,26.140625 q -4.17187,0 -6.15625,-1.890625 -1.98437,-1.890625 -1.98437,-5.375 v -10.5625 h -3.125 v -5.453125 h 3.125 v -6.109375 h 7.65625 v 6.109375 h 4.75 v 5.453125 h -4.75 v 9.78125 q 0,0.96875 0.48437,1.453125 0.48438,0.484375 1.5,0.484375 0.60938,0 1.40625,-0.28125 0.79688,-0.296875 1.35938,-0.734375 v 6.15625 q -1.04688,0.578125 -2.15625,0.765625 -1.09375,0.203125 -2.10938,0.203125 z m 9.11197,-0.96875 V 43.943039 h 7.29688 l 0.0469,21.953125 z m -0.0937,-25.171875 v -5.40625 h 7.48438 v 5.40625 z m 20.50833,25.171875 -9.28125,-22.3125 h 7.875 l 6.51563,16.71875 h -1.8125 l 5.54687,-16.71875 h 7.75 l -9.28125,22.3125 z m 29.25644,0.65625 q -3.42187,0 -6.04687,-1.375 -2.60938,-1.390625 -4.0625,-3.96875 -1.45313,-2.578125 -1.45313,-6.09375 0,-5.84375 2.9375,-9.09375 2.95313,-3.265625 8.5,-3.265625 3.6875,0 5.96875,1.59375 2.29688,1.578125 3.39063,4.703125 1.10937,3.109375 1.0625,7.640625 h -16.79688 l -0.89062,-4.4375 h 11.53125 l -0.875,2.375 q -0.0469,-3.5625 -0.90625,-4.984375 -0.85938,-1.4375 -2.84375,-1.4375 -1.04688,0 -1.9375,0.59375 -0.875,0.59375 -1.39063,1.921875 -0.5,1.3125 -0.5,3.5625 0,3.03125 1.42188,4.640625 1.4375,1.59375 4.75,1.59375 1.1875,0 2.375,-0.28125 1.1875,-0.28125 2.1875,-0.671875 1.01562,-0.40625 1.71875,-0.625 v 6.15625 q -1.53125,0.578125 -3.5,1.015625 -1.95313,0.4375 -4.64063,0.4375 z"
       id="path9"
       inkscape:connector-curvature="0"
       style="fill:#424242;fill-rule:nonzero" />
    <path
       d="M 158.03937,118.89616 V 89.552414 h 14.79687 q 5.09375,0 8.04688,2.328125 2.95312,2.328125 2.95312,7.125 0,1.812501 -0.73437,3.656251 -0.71875,1.84375 -2.20313,3.23437 -1.46875,1.39063 -3.71875,1.875 l -0.875,-2.6875 9.10938,13.8125 h -10.20313 l -7.09375,-12.625 3.48438,2.90625 h -5.59375 v 9.71875 z m 7.96875,-15.4375 h 5.67187 q 1.5,0 2.51563,-0.92187 1.01562,-0.9375 1.01562,-3.125001 0,-1.9375 -0.95312,-2.859375 -0.9375,-0.9375 -2.39063,-0.9375 h -5.85937 z m 34.02206,16.09375 q -5.76562,0 -8.65625,-2.98437 -2.875,-3 -2.875,-8.9375 0,-6.46875 2.89063,-9.171876 2.90625,-2.703125 8.64062,-2.703125 3.78125,0 6.375,1.21875 2.59375,1.203125 3.9375,3.828121 1.34375,2.60938 1.34375,6.82813 0,5.89062 -3.01562,8.90625 -3.01563,3.01562 -8.64063,3.01562 z m 0,-5.76562 q 1.40625,0 2.39063,-0.65625 0.98437,-0.65625 1.51562,-2.04688 0.53125,-1.39062 0.53125,-3.45312 0,-2.46875 -0.53125,-3.79688 -0.53125,-1.34375 -1.51562,-1.875 -0.98438,-0.53125 -2.39063,-0.53125 -1.45312,0 -2.42187,0.54688 -0.96875,0.54687 -1.4375,1.89062 -0.45313,1.34375 -0.45313,3.76563 0,3.21875 1.04688,4.6875 1.0625,1.46875 3.26562,1.46875 z m 26.38594,5.76562 q -1.89062,0 -3.76562,-0.26562 -1.85938,-0.26563 -3.40625,-0.89063 -1.53125,-0.64062 -2.4375,-1.82812 -0.90625,-1.1875 -0.90625,-3.125 V 88.536789 h 7.14062 v 12.234371 l -1.28125,-2.296871 q 0.75,-1 1.98438,-1.578125 1.23437,-0.578125 2.5,-0.796875 1.28125,-0.21875 2.07812,-0.21875 4.875,0 7.46875,2.96875 2.59375,2.968751 2.59375,8.828121 0,3.25 -0.84375,5.54688 -0.82812,2.28125 -2.40625,3.67187 -1.57812,1.39063 -3.78125,2.01563 -2.20312,0.64062 -4.9375,0.64062 z m -0.0312,-6.03125 q 1.67188,0 2.75,-0.625 1.07813,-0.64062 1.5625,-1.84375 0.48438,-1.21875 0.48438,-2.89062 0,-2.54688 -0.64063,-3.95313 -0.64062,-1.42187 -1.71875,-2.01562 -1.07812,-0.59375 -2.4375,-0.59375 -0.75,0 -1.6875,0.20312 -0.92187,0.20313 -1.65625,0.59375 v 9.15625 q 0,0.70313 0.40625,1.17188 0.42188,0.45312 1.17188,0.625 0.75,0.17187 1.76562,0.17187 z m 26.53321,6.03125 q -5.76563,0 -8.65625,-2.98437 -2.875,-3 -2.875,-8.9375 0,-6.46875 2.89062,-9.171876 2.90625,-2.703125 8.64063,-2.703125 3.78123,0 6.37498,1.21875 2.59375,1.203125 3.9375,3.828121 1.34375,2.60938 1.34375,6.82813 0,5.89062 -3.01562,8.90625 -3.01563,3.01562 -8.64061,3.01562 z m 0,-5.76562 q 1.40625,0 2.39062,-0.65625 0.98436,-0.65625 1.51561,-2.04688 0.53125,-1.39062 0.53125,-3.45312 0,-2.46875 -0.53125,-3.79688 -0.53125,-1.34375 -1.51561,-1.875 -0.98437,-0.53125 -2.39062,-0.53125 -1.45313,0 -2.42188,0.54688 -0.96875,0.54687 -1.4375,1.89062 -0.45312,1.34375 -0.45312,3.76563 0,3.21875 1.04687,4.6875 1.0625,1.46875 3.26563,1.46875 z m 25.46406,6.07812 q -4.17187,0 -6.15625,-1.89062 -1.98437,-1.89063 -1.98437,-5.375 v -10.5625 h -3.125 v -5.453126 h 3.125 v -6.109375 h 7.65625 v 6.109375 h 4.75 v 5.453126 h -4.75 v 9.78125 q 0,0.96875 0.48437,1.45312 0.48438,0.48438 1.5,0.48438 0.60938,0 1.40625,-0.28125 0.79688,-0.29688 1.35938,-0.73438 v 6.15625 q -1.04688,0.57813 -2.15625,0.76563 -1.09375,0.20312 -2.10938,0.20312 z m 9.11197,-0.96875 V 96.943039 h 7.29688 l 0.0469,21.953121 z m -0.0937,-25.171871 v -5.40625 h 7.48438 v 5.40625 z m 23.72708,25.781251 q -2.51562,0 -4.67187,-0.76563 -2.15625,-0.76562 -3.8125,-2.21875 -1.64063,-1.45312 -2.5625,-3.5625 -0.92188,-2.10937 -0.92188,-4.84375 0,-2.95312 0.82813,-5.23437 0.84375,-2.28125 2.42187,-3.828126 1.59375,-1.546875 3.76563,-2.328125 2.17187,-0.796875 4.85937,-0.796875 1.89063,0 3.84375,0.375 1.96875,0.375 3.375,1.078125 v 6.156251 q -1.54687,-0.75 -3,-1.23438 -1.45312,-0.48437 -2.98437,-0.48437 -2.54688,0 -4.21875,1.26562 -1.67188,1.25 -1.67188,4.10938 0,3.07812 1.42188,4.6875 1.4375,1.60937 4.8125,1.60937 1.64062,0 3.15625,-0.60937 1.51562,-0.625 2.57812,-1.25 v 6.07812 q -1.54687,0.875 -3.25,1.32813 -1.6875,0.46875 -3.96875,0.46875 z m 18.16034,0.0469 q -2.375,0 -4.09375,-0.53125 -1.70312,-0.51562 -3.10937,-1.04687 v -6.25 q 0.78125,0.57812 1.95312,1.21875 1.17188,0.625 2.59375,1.07812 1.4375,0.4375 3.0625,0.4375 1.40625,0 1.89063,-0.46875 0.48437,-0.46875 0.48437,-1.07812 0,-0.60938 -0.67187,-1.03125 -0.65625,-0.42188 -1.71875,-0.71875 -1.04688,-0.3125 -2.23438,-0.53125 -1.01562,-0.1875 -2,-0.64063 -0.98437,-0.46875 -1.8125,-1.28125 -0.8125,-0.8125 -1.28125,-2.01562 -0.45312,-1.21875 -0.45312,-2.84375 0,-2.25 0.85937,-3.71875 0.85938,-1.468751 2.28125,-2.375001 1.4375,-0.90625 3.0625,-1.296875 1.64063,-0.40625 3.17188,-0.359375 2.90625,0.09375 4.53125,0.625 1.625,0.53125 2.90625,1.359375 l 0.0469,5.499996 q -1.45312,-0.79687 -2.96875,-1.53125 -1.51562,-0.75 -3.45312,-0.75 -1.625,0 -2.25,0.48438 -0.60938,0.48437 -0.60938,1.21875 0,0.75 0.45313,1.17187 0.46875,0.42188 1.23437,0.67188 0.76563,0.23437 1.65625,0.5 1.09375,0.26562 2.28125,0.625 1.1875,0.34375 2.20313,1.04687 1.01562,0.70313 1.64062,1.9375 0.64063,1.21875 0.64063,3.25 -0.0312,2.76563 -1.46875,4.375 -1.42188,1.60938 -3.76563,2.29688 -2.32812,0.67187 -5.0625,0.67187 z"
       id="path11"
       inkscape:connector-curvature="0"
       style="fill:#424242;fill-rule:nonzero" />
    <path
       d="M 13.870792,14.661824 H 133.38787 V 134.17889 H 13.870792 Z"
       id="path13"
       inkscape:connector-curvature="0"
       style="fill:#000000;fill-opacity:0;fill-rule:evenodd" />
    <g
       transform="matrix(0.21153465,0,0,0.21154097,13.870793,14.554259)"
       id="g20">
      <clipPath
         id="p.1">
        <path
           d="M 0,0.5084848 H 565 V 565.49158 H 0 Z"
           id="path15"
           inkscape:connector-curvature="0"
           style="clip-rule:evenodd" />
      </clipPath>
      <g
         id="g1855"
         transform="matrix(3.0793414,0,0,3.0792507,18.050329,1.8117306)">
        <path
           inkscape:connector-curvature="0"
           id="path7799"
           d="m 203.77628,110.33107 c -6.70433,-1.43369 -12.15031,-4.71228 -16.17819,-9.7396 -2.03633,-2.541601 -4.41958,-7.169193 -5.31802,-10.326063 l -0.61778,-2.170698 V 20.531737 c 0,-62.955281 0.0317,-67.677449 0.4648,-69.241536 2.81305,-10.159074 9.81983,-17.378851 19.61908,-20.215491 l 2.16578,-0.626937 h 67.69864 67.69864 l 2.16577,0.626937 c 9.79926,2.83664 16.80603,10.056417 19.61909,20.215491 0.4331,1.564087 0.46479,6.286255 0.46479,69.241536 v 67.562972 l -0.62024,2.170698 c -0.92967,3.253564 -3.2712,7.800248 -5.33953,10.368033 -3.12268,3.87675 -7.60368,6.96905 -12.89817,8.90091 -1.78721,0.65212 -2.61326,0.7693 -6.78343,0.9623 -2.61162,0.12086 -33.01495,0.21791 -67.56297,0.21567 -52.58744,-0.003 -63.10172,-0.0655 -64.57826,-0.38125 z"
           style="fill:#000000;fill-opacity:0;stroke-width:0.27133724" />
        <path
           inkscape:connector-curvature="0"
           id="path7801"
           d="m 203.77628,110.33107 c -6.70433,-1.43369 -12.15031,-4.71228 -16.17819,-9.7396 -2.03633,-2.541601 -4.41958,-7.169193 -5.31802,-10.326063 l -0.61778,-2.170698 V 20.531737 c 0,-62.955281 0.0317,-67.677449 0.4648,-69.241536 2.81305,-10.159074 9.81983,-17.378851 19.61908,-20.215491 l 2.16578,-0.626937 h 67.69864 67.69864 l 2.16577,0.626937 c 9.79926,2.83664 16.80603,10.056417 19.61909,20.215491 0.4331,1.564087 0.46479,6.286255 0.46479,69.241536 v 67.562972 l -0.62024,2.170698 c -0.92967,3.253564 -3.2712,7.800248 -5.33953,10.368033 -3.12268,3.87675 -7.60368,6.96905 -12.89817,8.90091 -1.78721,0.65212 -2.61326,0.7693 -6.78343,0.9623 -2.61162,0.12086 -33.01495,0.21791 -67.56297,0.21567 -52.58744,-0.003 -63.10172,-0.0655 -64.57826,-0.38125 z"
           style="fill:#000000;fill-opacity:0;stroke-width:0.27133724" />
        <path
           inkscape:connector-curvature="0"
           id="path7803"
           d="m 203.77628,110.33107 c -6.70433,-1.43369 -12.15031,-4.71228 -16.17819,-9.7396 -2.03633,-2.541601 -4.41958,-7.169193 -5.31802,-10.326063 l -0.61778,-2.170698 V 20.531737 c 0,-62.955281 0.0317,-67.677449 0.4648,-69.241536 2.81305,-10.159074 9.81983,-17.378851 19.61908,-20.215491 l 2.16578,-0.626937 h 67.69864 67.69864 l 2.16577,0.626937 c 9.79926,2.83664 16.80603,10.056417 19.61909,20.215491 0.4331,1.564087 0.46479,6.286255 0.46479,69.241536 v 67.562972 l -0.62024,2.170698 c -0.92967,3.253564 -3.2712,7.800248 -5.33953,10.368033 -3.12268,3.87675 -7.60368,6.96905 -12.89817,8.90091 -1.78721,0.65212 -2.61326,0.7693 -6.78343,0.9623 -2.61162,0.12086 -33.01495,0.21791 -67.56297,0.21567 -52.58744,-0.003 -63.10172,-0.0655 -64.57826,-0.38125 z"
           style="fill:#000000;fill-opacity:0;stroke-width:0.27133724" />
        <path
           inkscape:connector-curvature="0"
           id="path7805"
           d="m 203.77628,110.33107 c -6.70433,-1.43369 -12.15031,-4.71228 -16.17819,-9.7396 -2.03633,-2.541601 -4.41958,-7.169193 -5.31802,-10.326063 l -0.61778,-2.170698 V 20.531737 c 0,-62.955281 0.0317,-67.677449 0.4648,-69.241536 2.81305,-10.159074 9.81983,-17.378851 19.61908,-20.215491 l 2.16578,-0.626937 h 67.69864 67.69864 l 2.16577,0.626937 c 9.79926,2.83664 16.80603,10.056417 19.61909,20.215491 0.4331,1.564087 0.46479,6.286255 0.46479,69.241536 v 67.562972 l -0.62024,2.170698 c -0.92967,3.253564 -3.2712,7.800248 -5.33953,10.368033 -3.12268,3.87675 -7.60368,6.96905 -12.89817,8.90091 -1.78721,0.65212 -2.61326,0.7693 -6.78343,0.9623 -2.61162,0.12086 -33.01495,0.21791 -67.56297,0.21567 -52.58744,-0.003 -63.10172,-0.0655 -64.57826,-0.38125 z"
           style="fill:#00ffff;fill-opacity:0;stroke-width:0.27133724" />
        <path
           inkscape:connector-curvature="0"
           id="path7807"
           d="m 203.77628,110.33107 c -6.70433,-1.43369 -12.15031,-4.71228 -16.17819,-9.7396 -2.03633,-2.541601 -4.41958,-7.169193 -5.31802,-10.326063 l -0.61778,-2.170698 V 20.531737 c 0,-62.955281 0.0317,-67.677449 0.4648,-69.241536 2.81305,-10.159074 9.81983,-17.378851 19.61908,-20.215491 l 2.16578,-0.626937 h 67.69864 67.69864 l 2.16577,0.626937 c 9.79926,2.83664 16.80603,10.056417 19.61909,20.215491 0.4331,1.564087 0.46479,6.286255 0.46479,69.241536 v 67.562972 l -0.62024,2.170698 c -0.92967,3.253564 -3.2712,7.800248 -5.33953,10.368033 -3.12268,3.87675 -7.60368,6.96905 -12.89817,8.90091 -1.78721,0.65212 -2.61326,0.7693 -6.78343,0.9623 -2.61162,0.12086 -33.01495,0.21791 -67.56297,0.21567 -52.58744,-0.003 -63.10172,-0.0655 -64.57826,-0.38125 z"
           style="fill:#00ffff;fill-opacity:0;stroke-width:0.27133724" />
        <path
           inkscape:connector-curvature="0"
           id="path7809"
           d="m 203.77628,110.33107 c -6.70433,-1.43369 -12.15031,-4.71228 -16.17819,-9.7396 -2.03633,-2.541601 -4.41958,-7.169193 -5.31802,-10.326063 l -0.61778,-2.170698 V 20.531737 c 0,-62.955281 0.0317,-67.677449 0.4648,-69.241536 2.81305,-10.159074 9.81983,-17.378851 19.61908,-20.215491 l 2.16578,-0.626937 h 67.69864 67.69864 l 2.16577,0.626937 c 9.79926,2.83664 16.80603,10.056417 19.61909,20.215491 0.4331,1.564087 0.46479,6.286255 0.46479,69.241536 v 67.562972 l -0.62024,2.170698 c -0.92967,3.253564 -3.2712,7.800248 -5.33953,10.368033 -3.12268,3.87675 -7.60368,6.96905 -12.89817,8.90091 -1.78721,0.65212 -2.61326,0.7693 -6.78343,0.9623 -2.61162,0.12086 -33.01495,0.21791 -67.56297,0.21567 -52.58744,-0.003 -63.10172,-0.0655 -64.57826,-0.38125 z"
           style="fill:#00ffff;fill-opacity:0;stroke-width:0.27133724" />
        <path
           inkscape:connector-curvature="0"
           id="path7811"
           d="m 203.77628,110.33107 c -6.70433,-1.43369 -12.15031,-4.71228 -16.17819,-9.7396 -2.03633,-2.541601 -4.41958,-7.169193 -5.31802,-10.326063 l -0.61778,-2.170698 V 20.531737 c 0,-62.955281 0.0317,-67.677449 0.4648,-69.241536 2.81305,-10.159074 9.81983,-17.378851 19.61908,-20.215491 l 2.16578,-0.626937 h 67.69864 67.69864 l 2.16577,0.626937 c 9.79926,2.83664 16.80603,10.056417 19.61909,20.215491 0.4331,1.564087 0.46479,6.286255 0.46479,69.241536 v 67.562972 l -0.62024,2.170698 c -0.92967,3.253564 -3.2712,7.800248 -5.33953,10.368033 -3.12268,3.87675 -7.60368,6.96905 -12.89817,8.90091 -1.78721,0.65212 -2.61326,0.7693 -6.78343,0.9623 -2.61162,0.12086 -33.01495,0.21791 -67.56297,0.21567 -52.58744,-0.003 -63.10172,-0.0655 -64.57826,-0.38125 z"
           style="fill:#00ffff;fill-opacity:0;stroke-width:0.27133724" />
        <path
           inkscape:connector-curvature="0"
           id="path7813"
           d="m 203.77628,110.33107 c -6.70433,-1.43369 -12.15031,-4.71228 -16.17819,-9.7396 -2.03633,-2.541601 -4.41958,-7.169193 -5.31802,-10.326063 l -0.61778,-2.170698 V 20.531737 c 0,-62.955281 0.0317,-67.677449 0.4648,-69.241536 2.81305,-10.159074 9.81983,-17.378851 19.61908,-20.215491 l 2.16578,-0.626937 h 67.69864 67.69864 l 2.16577,0.626937 c 9.79926,2.83664 16.80603,10.056417 19.61909,20.215491 0.4331,1.564087 0.46479,6.286255 0.46479,69.241536 v 67.562972 l -0.62024,2.170698 c -0.92967,3.253564 -3.2712,7.800248 -5.33953,10.368033 -3.12268,3.87675 -7.60368,6.96905 -12.89817,8.90091 -1.78721,0.65212 -2.61326,0.7693 -6.78343,0.9623 -2.61162,0.12086 -33.01495,0.21791 -67.56297,0.21567 -52.58744,-0.003 -63.10172,-0.0655 -64.57826,-0.38125 z"
           style="fill:#00ffff;fill-opacity:0;stroke-width:0.27133724" />
        <path
           inkscape:connector-curvature="0"
           id="path7815"
           d="m 203.77628,110.33107 c -6.70433,-1.43369 -12.15031,-4.71228 -16.17819,-9.7396 -2.03633,-2.541601 -4.41958,-7.169193 -5.31802,-10.326063 l -0.61778,-2.170698 V 20.531737 c 0,-62.955281 0.0317,-67.677449 0.4648,-69.241536 2.81305,-10.159074 9.81983,-17.378851 19.61908,-20.215491 l 2.16578,-0.626937 h 67.69864 67.69864 l 2.16577,0.626937 c 9.79926,2.83664 16.80603,10.056417 19.61909,20.215491 0.4331,1.564087 0.46479,6.286255 0.46479,69.241536 v 67.562972 l -0.62024,2.170698 c -0.92967,3.253564 -3.2712,7.800248 -5.33953,10.368033 -3.12268,3.87675 -7.60368,6.96905 -12.89817,8.90091 -1.78721,0.65212 -2.61326,0.7693 -6.78343,0.9623 -2.61162,0.12086 -33.01495,0.21791 -67.56297,0.21567 -52.58744,-0.003 -63.10172,-0.0655 -64.57826,-0.38125 z"
           style="fill:#00ffff;fill-opacity:0;stroke-width:0.27133724" />
        <path
           inkscape:connector-curvature="0"
           id="path7817"
           d="m 203.77628,110.33107 c -6.70433,-1.43369 -12.15031,-4.71228 -16.17819,-9.7396 -2.03633,-2.541601 -4.41958,-7.169193 -5.31802,-10.326063 l -0.61778,-2.170698 V 20.531737 c 0,-62.955281 0.0317,-67.677449 0.4648,-69.241536 2.81305,-10.159074 9.81983,-17.378851 19.61908,-20.215491 l 2.16578,-0.626937 h 67.69864 67.69864 l 2.16577,0.626937 c 9.79926,2.83664 16.80603,10.056417 19.61909,20.215491 0.4331,1.564087 0.46479,6.286255 0.46479,69.241536 v 67.562972 l -0.62024,2.170698 c -0.92967,3.253564 -3.2712,7.800248 -5.33953,10.368033 -3.12268,3.87675 -7.60368,6.96905 -12.89817,8.90091 -1.78721,0.65212 -2.61326,0.7693 -6.78343,0.9623 -2.61162,0.12086 -33.01495,0.21791 -67.56297,0.21567 -52.58744,-0.003 -63.10172,-0.0655 -64.57826,-0.38125 z"
           style="fill:#00ffff;fill-opacity:0;stroke-width:0.27133724" />
        <path
           inkscape:connector-curvature="0"
           id="path7819"
           d="m 203.77628,110.33107 c -6.70433,-1.43369 -12.15031,-4.71228 -16.17819,-9.7396 -2.03633,-2.541601 -4.41958,-7.169193 -5.31802,-10.326063 l -0.61778,-2.170698 V 20.531737 c 0,-62.955281 0.0317,-67.677449 0.4648,-69.241536 2.81305,-10.159074 9.81983,-17.378851 19.61908,-20.215491 l 2.16578,-0.626937 h 67.69864 67.69864 l 2.16577,0.626937 c 9.79926,2.83664 16.80603,10.056417 19.61909,20.215491 0.4331,1.564087 0.46479,6.286255 0.46479,69.241536 v 67.562972 l -0.62024,2.170698 c -0.92967,3.253564 -3.2712,7.800248 -5.33953,10.368033 -3.12268,3.87675 -7.60368,6.96905 -12.89817,8.90091 -1.78721,0.65212 -2.61326,0.7693 -6.78343,0.9623 -2.61162,0.12086 -33.01495,0.21791 -67.56297,0.21567 -52.58744,-0.003 -63.10172,-0.0655 -64.57826,-0.38125 z"
           style="fill:#00ffff;fill-opacity:0;stroke-width:0.27133724" />
        <path
           inkscape:connector-curvature="0"
           id="path7821"
           d="m 203.77628,110.33107 c -6.70433,-1.43369 -12.15031,-4.71228 -16.17819,-9.7396 -2.03633,-2.541601 -4.41958,-7.169193 -5.31802,-10.326063 l -0.61778,-2.170698 V 20.531737 c 0,-62.955281 0.0317,-67.677449 0.4648,-69.241536 2.81305,-10.159074 9.81983,-17.378851 19.61908,-20.215491 l 2.16578,-0.626937 h 67.69864 67.69864 l 2.16577,0.626937 c 9.79926,2.83664 16.80603,10.056417 19.61909,20.215491 0.4331,1.564087 0.46479,6.286255 0.46479,69.241536 v 67.562972 l -0.62024,2.170698 c -0.92967,3.253564 -3.2712,7.800248 -5.33953,10.368033 -3.12268,3.87675 -7.60368,6.96905 -12.89817,8.90091 -1.78721,0.65212 -2.61326,0.7693 -6.78343,0.9623 -2.61162,0.12086 -33.01495,0.21791 -67.56297,0.21567 -52.58744,-0.003 -63.10172,-0.0655 -64.57826,-0.38125 z"
           style="opacity:0.02000002;fill:#00ffff;fill-opacity:0;stroke-width:0.27133724" />
        <path
           inkscape:connector-curvature="0"
           id="path7823"
           d="m 203.77628,110.33107 c -6.70433,-1.43369 -12.15031,-4.71228 -16.17819,-9.7396 -2.03633,-2.541601 -4.41958,-7.169193 -5.31802,-10.326063 l -0.61778,-2.170698 V 20.531737 c 0,-62.955281 0.0317,-67.677449 0.4648,-69.241536 2.81305,-10.159074 9.81983,-17.378851 19.61908,-20.215491 l 2.16578,-0.626937 h 67.69864 67.69864 l 2.16577,0.626937 c 9.79926,2.83664 16.80603,10.056417 19.61909,20.215491 0.4331,1.564087 0.46479,6.286255 0.46479,69.241536 v 67.562972 l -0.62024,2.170698 c -0.92967,3.253564 -3.2712,7.800248 -5.33953,10.368033 -3.12268,3.87675 -7.60368,6.96905 -12.89817,8.90091 -1.78721,0.65212 -2.61326,0.7693 -6.78343,0.9623 -2.61162,0.12086 -33.01495,0.21791 -67.56297,0.21567 -52.58744,-0.003 -63.10172,-0.0655 -64.57826,-0.38125 z"
           style="opacity:0;fill:#00ffff;fill-opacity:1;stroke-width:0.27133724" />
        <path
           inkscape:connector-curvature="0"
           id="path8368"
           d="m 203.28787,110.21199 c -9.23254,-2.09953 -16.46931,-8.24289 -19.95015,-16.935874 -1.84084,-4.597277 -1.70015,0.524818 -1.81542,-66.096617 -0.0605,-34.9781324 0.004,-63.568237 0.15311,-67.969978 0.25058,-7.390927 0.27939,-7.660136 1.05985,-9.90381 0.94883,-2.727714 2.19167,-5.256895 3.61273,-7.351895 4.0922,-6.032948 11.52352,-10.629874 18.42448,-11.39717 1.41416,-0.157236 28.11447,-0.228439 68.65608,-0.183087 l 66.34195,0.07421 2.30637,0.778528 c 9.35213,3.156869 15.46522,9.269955 18.62208,18.622085 l 0.77853,2.306366 v 68.105647 68.105647 l -0.62047,2.142216 c -2.64169,9.12054 -9.07441,15.832302 -18.25755,19.049512 -1.70154,0.59612 -2.73241,0.7413 -6.62768,0.93344 -2.537,0.12513 -32.94034,0.22457 -67.56297,0.22096 -59.87556,-0.006 -63.05626,-0.0307 -65.12094,-0.50018 z"
           style="opacity:0;fill:#00ffff;fill-opacity:1;stroke-width:0.27133724" />
        <path
           inkscape:connector-curvature="0"
           id="path8370"
           d="m 203.77628,110.33107 c -6.70433,-1.43369 -12.15031,-4.71228 -16.17819,-9.7396 -2.03633,-2.541601 -4.41958,-7.169193 -5.31802,-10.326063 l -0.61778,-2.170698 V 20.531737 c 0,-62.955281 0.0317,-67.677449 0.4648,-69.241536 2.81305,-10.159074 9.81983,-17.378851 19.61908,-20.215491 l 2.16578,-0.626937 h 67.69864 67.69864 l 2.16577,0.626937 c 9.79926,2.83664 16.80603,10.056417 19.61909,20.215491 0.4331,1.564087 0.46479,6.286255 0.46479,69.241536 v 67.562972 l -0.62024,2.170698 c -0.92967,3.253564 -3.2712,7.800248 -5.33953,10.368033 -3.12268,3.87675 -7.60368,6.96905 -12.89817,8.90091 -1.78721,0.65212 -2.61326,0.7693 -6.78343,0.9623 -2.61162,0.12086 -33.01495,0.21791 -67.56297,0.21567 -52.58744,-0.003 -63.10172,-0.0655 -64.57826,-0.38125 z"
           style="opacity:0;fill:#00ffff;fill-opacity:1;stroke-width:0.27133724" />
        <path
           inkscape:connector-curvature="0"
           id="path8372"
           d="m 203.77628,110.33107 c -6.70433,-1.43369 -12.15031,-4.71228 -16.17819,-9.7396 -2.03633,-2.541601 -4.41958,-7.169193 -5.31802,-10.326063 l -0.61778,-2.170698 V 20.531737 c 0,-62.955281 0.0317,-67.677449 0.4648,-69.241536 2.81305,-10.159074 9.81983,-17.378851 19.61908,-20.215491 l 2.16578,-0.626937 h 67.69864 67.69864 l 2.16577,0.626937 c 9.79926,2.83664 16.80603,10.056417 19.61909,20.215491 0.4331,1.564087 0.46479,6.286255 0.46479,69.241536 v 67.562972 l -0.62024,2.170698 c -0.92967,3.253564 -3.2712,7.800248 -5.33953,10.368033 -3.12268,3.87675 -7.60368,6.96905 -12.89817,8.90091 -1.78721,0.65212 -2.61326,0.7693 -6.78343,0.9623 -2.61162,0.12086 -33.01495,0.21791 -67.56297,0.21567 -52.58744,-0.003 -63.10172,-0.0655 -64.57826,-0.38125 z"
           style="opacity:0;fill:#00ffff;fill-opacity:1;stroke-width:0.27133724" />
        <path
           inkscape:connector-curvature="0"
           id="path8374"
           d="m 203.77628,110.33107 c -6.70433,-1.43369 -12.15031,-4.71228 -16.17819,-9.7396 -2.03633,-2.541601 -4.41958,-7.169193 -5.31802,-10.326063 l -0.61778,-2.170698 V 20.531737 c 0,-62.955281 0.0317,-67.677449 0.4648,-69.241536 2.81305,-10.159074 9.81983,-17.378851 19.61908,-20.215491 l 2.16578,-0.626937 h 67.69864 67.69864 l 2.16577,0.626937 c 9.79926,2.83664 16.80603,10.056417 19.61909,20.215491 0.4331,1.564087 0.46479,6.286255 0.46479,69.241536 v 67.562972 l -0.62024,2.170698 c -0.92967,3.253564 -3.2712,7.800248 -5.33953,10.368033 -3.12268,3.87675 -7.60368,6.96905 -12.89817,8.90091 -1.78721,0.65212 -2.61326,0.7693 -6.78343,0.9623 -2.61162,0.12086 -33.01495,0.21791 -67.56297,0.21567 -52.58744,-0.003 -63.10172,-0.0655 -64.57826,-0.38125 z"
           style="opacity:0;fill:#00ffff;fill-opacity:1;stroke-width:0.27133724" />
        <path
           inkscape:connector-curvature="0"
           id="path8376"
           d="m 203.77628,110.33107 c -6.70433,-1.43369 -12.15031,-4.71228 -16.17819,-9.7396 -2.03633,-2.541601 -4.41958,-7.169193 -5.31802,-10.326063 l -0.61778,-2.170698 V 20.531737 c 0,-62.955281 0.0317,-67.677449 0.4648,-69.241536 2.81305,-10.159074 9.81983,-17.378851 19.61908,-20.215491 l 2.16578,-0.626937 h 67.69864 67.69864 l 2.16577,0.626937 c 9.79926,2.83664 16.80603,10.056417 19.61909,20.215491 0.4331,1.564087 0.46479,6.286255 0.46479,69.241536 v 67.562972 l -0.62024,2.170698 c -0.92967,3.253564 -3.2712,7.800248 -5.33953,10.368033 -3.12268,3.87675 -7.60368,6.96905 -12.89817,8.90091 -1.78721,0.65212 -2.61326,0.7693 -6.78343,0.9623 -2.61162,0.12086 -33.01495,0.21791 -67.56297,0.21567 -52.58744,-0.003 -63.10172,-0.0655 -64.57826,-0.38125 z"
           style="opacity:0;fill:#00ffff;fill-opacity:1;stroke-width:0.27133724" />
        <path
           inkscape:connector-curvature="0"
           id="path8378"
           d="m 203.77628,110.33107 c -6.70433,-1.43369 -12.15031,-4.71228 -16.17819,-9.7396 -2.03633,-2.541601 -4.41958,-7.169193 -5.31802,-10.326063 l -0.61778,-2.170698 V 20.531737 c 0,-62.955281 0.0317,-67.677449 0.4648,-69.241536 2.81305,-10.159074 9.81983,-17.378851 19.61908,-20.215491 l 2.16578,-0.626937 h 67.69864 67.69864 l 2.16577,0.626937 c 9.79926,2.83664 16.80603,10.056417 19.61909,20.215491 0.4331,1.564087 0.46479,6.286255 0.46479,69.241536 v 67.562972 l -0.62024,2.170698 c -0.92967,3.253564 -3.2712,7.800248 -5.33953,10.368033 -3.12268,3.87675 -7.60368,6.96905 -12.89817,8.90091 -1.78721,0.65212 -2.61326,0.7693 -6.78343,0.9623 -2.61162,0.12086 -33.01495,0.21791 -67.56297,0.21567 -52.58744,-0.003 -63.10172,-0.0655 -64.57826,-0.38125 z"
           style="opacity:0;fill:#00ffff;fill-opacity:1;stroke-width:0.27133724" />
        <path
           inkscape:connector-curvature="0"
           id="path8465"
           d="m 203.77628,110.33107 c -6.70433,-1.43369 -12.15031,-4.71228 -16.17819,-9.7396 -2.03633,-2.541601 -4.41958,-7.169193 -5.31802,-10.326063 l -0.61778,-2.170698 V 20.531737 c 0,-62.955281 0.0317,-67.677449 0.4648,-69.241536 2.81305,-10.159074 9.81983,-17.378851 19.61908,-20.215491 l 2.16578,-0.626937 h 67.69864 67.69864 l 2.16577,0.626937 c 9.79926,2.83664 16.80603,10.056417 19.61909,20.215491 0.4331,1.564087 0.46479,6.286255 0.46479,69.241536 v 67.562972 l -0.62024,2.170698 c -0.92967,3.253564 -3.2712,7.800248 -5.33953,10.368033 -3.12268,3.87675 -7.60368,6.96905 -12.89817,8.90091 -1.78721,0.65212 -2.61326,0.7693 -6.78343,0.9623 -2.61162,0.12086 -33.01495,0.21791 -67.56297,0.21567 -52.58744,-0.003 -63.10172,-0.0655 -64.57826,-0.38125 z"
           style="opacity:0;fill:#00ffff;fill-opacity:1;stroke-width:0.27133724" />
        <path
           inkscape:connector-curvature="0"
           id="path8467"
           d="m 203.77628,110.33107 c -6.70433,-1.43369 -12.15031,-4.71228 -16.17819,-9.7396 -2.03633,-2.541601 -4.41958,-7.169193 -5.31802,-10.326063 l -0.61778,-2.170698 V 20.531737 c 0,-62.955281 0.0317,-67.677449 0.4648,-69.241536 2.81305,-10.159074 9.81983,-17.378851 19.61908,-20.215491 l 2.16578,-0.626937 h 67.69864 67.69864 l 2.16577,0.626937 c 9.79926,2.83664 16.80603,10.056417 19.61909,20.215491 0.4331,1.564087 0.46479,6.286255 0.46479,69.241536 v 67.562972 l -0.62024,2.170698 c -0.92967,3.253564 -3.2712,7.800248 -5.33953,10.368033 -3.12268,3.87675 -7.60368,6.96905 -12.89817,8.90091 -1.78721,0.65212 -2.61326,0.7693 -6.78343,0.9623 -2.61162,0.12086 -33.01495,0.21791 -67.56297,0.21567 -52.58744,-0.003 -63.10172,-0.0655 -64.57826,-0.38125 z"
           style="opacity:0;fill:#00ffff;fill-opacity:1;stroke-width:0.27133724" />
        <path
           inkscape:connector-curvature="0"
           id="path8469"
           d="m 203.77628,110.33107 c -6.70433,-1.43369 -12.15031,-4.71228 -16.17819,-9.7396 -2.03633,-2.541601 -4.41958,-7.169193 -5.31802,-10.326063 l -0.61778,-2.170698 V 20.531737 c 0,-62.955281 0.0317,-67.677449 0.4648,-69.241536 2.81305,-10.159074 9.81983,-17.378851 19.61908,-20.215491 l 2.16578,-0.626937 h 67.69864 67.69864 l 2.16577,0.626937 c 9.79926,2.83664 16.80603,10.056417 19.61909,20.215491 0.4331,1.564087 0.46479,6.286255 0.46479,69.241536 v 67.562972 l -0.62024,2.170698 c -0.92967,3.253564 -3.2712,7.800248 -5.33953,10.368033 -3.12268,3.87675 -7.60368,6.96905 -12.89817,8.90091 -1.78721,0.65212 -2.61326,0.7693 -6.78343,0.9623 -2.61162,0.12086 -33.01495,0.21791 -67.56297,0.21567 -52.58744,-0.003 -63.10172,-0.0655 -64.57826,-0.38125 z"
           style="opacity:0;fill:#00ffff;fill-opacity:1;stroke-width:0.27133724" />
        <path
           inkscape:connector-curvature="0"
           id="path8471"
           d="m 203.77628,110.33107 c -6.70433,-1.43369 -12.15031,-4.71228 -16.17819,-9.7396 -2.03633,-2.541601 -4.41958,-7.169193 -5.31802,-10.326063 l -0.61778,-2.170698 V 20.531737 c 0,-62.955281 0.0317,-67.677449 0.4648,-69.241536 2.81305,-10.159074 9.81983,-17.378851 19.61908,-20.215491 l 2.16578,-0.626937 h 67.69864 67.69864 l 2.16577,0.626937 c 9.79926,2.83664 16.80603,10.056417 19.61909,20.215491 0.4331,1.564087 0.46479,6.286255 0.46479,69.241536 v 67.562972 l -0.62024,2.170698 c -0.92967,3.253564 -3.2712,7.800248 -5.33953,10.368033 -3.12268,3.87675 -7.60368,6.96905 -12.89817,8.90091 -1.78721,0.65212 -2.61326,0.7693 -6.78343,0.9623 -2.61162,0.12086 -33.01495,0.21791 -67.56297,0.21567 -52.58744,-0.003 -63.10172,-0.0655 -64.57826,-0.38125 z"
           style="opacity:0;fill:#00ffff;fill-opacity:1;stroke-width:0.27133724" />
        <path
           inkscape:connector-curvature="0"
           id="path8473"
           d="m 203.77628,110.33107 c -6.70433,-1.43369 -12.15031,-4.71228 -16.17819,-9.7396 -2.03633,-2.541601 -4.41958,-7.169193 -5.31802,-10.326063 l -0.61778,-2.170698 V 20.531737 c 0,-62.955281 0.0317,-67.677449 0.4648,-69.241536 2.81305,-10.159074 9.81983,-17.378851 19.61908,-20.215491 l 2.16578,-0.626937 h 67.69864 67.69864 l 2.16577,0.626937 c 9.79926,2.83664 16.80603,10.056417 19.61909,20.215491 0.4331,1.564087 0.46479,6.286255 0.46479,69.241536 v 67.562972 l -0.62024,2.170698 c -0.92967,3.253564 -3.2712,7.800248 -5.33953,10.368033 -3.12268,3.87675 -7.60368,6.96905 -12.89817,8.90091 -1.78721,0.65212 -2.61326,0.7693 -6.78343,0.9623 -2.61162,0.12086 -33.01495,0.21791 -67.56297,0.21567 -52.58744,-0.003 -63.10172,-0.0655 -64.57826,-0.38125 z"
           style="opacity:0;fill:#00ffff;fill-opacity:1;stroke-width:0.27133724" />
        <path
           inkscape:connector-curvature="0"
           id="path8475"
           d="m 203.77628,110.33107 c -6.70433,-1.43369 -12.15031,-4.71228 -16.17819,-9.7396 -2.03633,-2.541601 -4.41958,-7.169193 -5.31802,-10.326063 l -0.61778,-2.170698 V 20.531737 c 0,-62.955281 0.0317,-67.677449 0.4648,-69.241536 2.81305,-10.159074 9.81983,-17.378851 19.61908,-20.215491 l 2.16578,-0.626937 h 67.69864 67.69864 l 2.16577,0.626937 c 9.79926,2.83664 16.80603,10.056417 19.61909,20.215491 0.4331,1.564087 0.46479,6.286255 0.46479,69.241536 v 67.562972 l -0.62024,2.170698 c -0.92967,3.253564 -3.2712,7.800248 -5.33953,10.368033 -3.12268,3.87675 -7.60368,6.96905 -12.89817,8.90091 -1.78721,0.65212 -2.61326,0.7693 -6.78343,0.9623 -2.61162,0.12086 -33.01495,0.21791 -67.56297,0.21567 -52.58744,-0.003 -63.10172,-0.0655 -64.57826,-0.38125 z"
           style="opacity:0;fill:#00ffff;fill-opacity:1;stroke-width:0.27133724" />
        <path
           inkscape:connector-curvature="0"
           id="path8477"
           d="m 203.77628,110.33107 c -6.70433,-1.43369 -12.15031,-4.71228 -16.17819,-9.7396 -2.03633,-2.541601 -4.41958,-7.169193 -5.31802,-10.326063 l -0.61778,-2.170698 V 20.531737 c 0,-62.955281 0.0317,-67.677449 0.4648,-69.241536 2.81305,-10.159074 9.81983,-17.378851 19.61908,-20.215491 l 2.16578,-0.626937 h 67.69864 67.69864 l 2.16577,0.626937 c 9.79926,2.83664 16.80603,10.056417 19.61909,20.215491 0.4331,1.564087 0.46479,6.286255 0.46479,69.241536 v 67.562972 l -0.62024,2.170698 c -0.92967,3.253564 -3.2712,7.800248 -5.33953,10.368033 -3.12268,3.87675 -7.60368,6.96905 -12.89817,8.90091 -1.78721,0.65212 -2.61326,0.7693 -6.78343,0.9623 -2.61162,0.12086 -33.01495,0.21791 -67.56297,0.21567 -52.58744,-0.003 -63.10172,-0.0655 -64.57826,-0.38125 z"
           style="opacity:0;fill:#00ffff;fill-opacity:1;stroke-width:0.27133724" />
        <path
           inkscape:connector-curvature="0"
           id="path8479"
           d="m 203.77628,110.33107 c -6.70433,-1.43369 -12.15031,-4.71228 -16.17819,-9.7396 -2.03633,-2.541601 -4.41958,-7.169193 -5.31802,-10.326063 l -0.61778,-2.170698 V 20.531737 c 0,-62.955281 0.0317,-67.677449 0.4648,-69.241536 2.81305,-10.159074 9.81983,-17.378851 19.61908,-20.215491 l 2.16578,-0.626937 h 67.69864 67.69864 l 2.16577,0.626937 c 9.79926,2.83664 16.80603,10.056417 19.61909,20.215491 0.4331,1.564087 0.46479,6.286255 0.46479,69.241536 v 67.562972 l -0.62024,2.170698 c -0.92967,3.253564 -3.2712,7.800248 -5.33953,10.368033 -3.12268,3.87675 -7.60368,6.96905 -12.89817,8.90091 -1.78721,0.65212 -2.61326,0.7693 -6.78343,0.9623 -2.61162,0.12086 -33.01495,0.21791 -67.56297,0.21567 -52.58744,-0.003 -63.10172,-0.0655 -64.57826,-0.38125 z"
           style="opacity:0;fill:#00ffff;fill-opacity:1;stroke-width:0.27133724" />
        <g
           inkscape:label="Layer 1"
           id="layer1">
          <path
             sodipodi:nodetypes="ccccccccc"
             inkscape:connector-curvature="0"
             id="path8806"
             d="M 23.608353,181.15009 C 11.553498,179.31529 -1.1411016,168.04216 0.3884679,155.01393 0.0391001,109.65707 -0.02619046,64.285019 0.61024798,18.937153 1.7766498,6.943388 14.4083,-0.99363878 25.863379,0.47285863 70.642729,0.95247487 115.43683,0.69792862 160.20771,0.57838294 172.20182,2.4959203 182.47002,14.435613 180.63633,26.830361 c -0.14592,43.756362 -0.17572,87.513019 -0.33073,131.269359 -2.35179,14.34956 -18.53741,24.82882 -32.71021,22.9242 -42.14288,-0.19255 -81.843837,0.0581 -123.987037,0.12617 z"
             style="fill:url(#linearGradient4952);fill-opacity:1;stroke:none;stroke-width:0.27133724" />
        </g>
        <g
           inkscape:label="Layer 2"
           id="layer2">
          <path
             sodipodi:nodetypes="cccccccccccccccccccccc"
             inkscape:connector-curvature="0"
             id="path6844"
             d="m 90.627948,92.61459 h -23.04 V 77.766591 H 120.30795 V 92.61459 h -13.04 V 158.6626 H 90.627948 Z m 34.976952,45.04432 c 0.0185,-4.51919 0.0371,-9.03838 0.0556,-13.55757 5.25951,-1.1722 11.45206,-3.31867 13.10842,-9.06165 1.66043,-5.16898 1.39649,-11.15501 -1.02597,-16.03246 -2.60845,-4.14784 -7.60492,-5.953757 -12.26703,-6.47464 V 77.71632 c 11.25159,0.719958 23.68917,5.490296 28.63054,16.39329 3.89088,8.58361 3.97413,18.99446 0.0571,27.57593 -2.66335,5.14774 -7.26915,9.14376 -12.51676,11.51429 5.42313,8.46858 11.00235,16.83591 16.5745,25.20677 h -19.32038 c -4.43201,-6.9159 -8.86403,-13.83179 -13.29604,-20.74769 z"
             style="fill:#ffffff;fill-opacity:1;stroke-width:0.25599998" />
        </g>
      </g>
    </g>
  </g>
</svg>
